<?xml version="1.0" encoding="utf-8"?>
<!-- Generator: Adobe Illustrator 24.1.2, SVG Export Plug-In . SVG Version: 6.00 Build 0)  -->
<svg version="1.1" xmlns="http://www.w3.org/2000/svg" xmlns:xlink="http://www.w3.org/1999/xlink" x="0px" y="0px"
	 viewBox="0 0 1920 1080" style="enable-background:new 0 0 1920 1080;" xml:space="preserve">
<style type="text/css">
	.st0{fill:#FEFEFE;}
	.st1{fill:#464646;}
	.st2{fill:#6D6D6D;}
</style>
<g id="Camada_1">
</g>
<g id="Camada_2">
	<g>
		<path d="M660.81,630.72h-1.85V410.47h59.43c6.57,0,12.78,1.33,18.63,3.99c5.85,2.66,10.42,6.66,13.71,11.98l21.55,21.2l0.61,0.31
			c2.67,2.66,4.78,5.79,6.32,9.37c1.54,3.58,2.31,7.63,2.31,12.13v48.84c0,9.63-3.38,17.31-10.14,23.04l0.92,0.61
			c6.14,5.94,9.21,13.42,9.21,22.42l-0.31,64.2c0,4.09-0.98,7.83-2.93,11.21c-1.95,3.38-4.42,6.3-7.39,8.75
			c-2.98,2.46-6.31,4.4-10.01,5.84c-3.7,1.43-7.39,2.15-11.08,2.15h-62.51L660.81,630.72z M722.24,624.57
			c3.07,0,6.14-0.56,9.22-1.69c3.07-1.12,5.84-2.71,8.29-4.76c2.46-2.04,4.5-4.45,6.14-7.22c1.64-2.76,2.46-5.78,2.46-9.06
			l0.31-64.2c0-4.71-1.26-9.16-3.79-13.36c-2.52-4.19-5.81-7.42-9.84-9.68c4.04-2.25,7.32-5.48,9.84-9.68
			c2.52-4.2,3.79-8.65,3.79-13.36v-48.84c0-4.3-0.87-8.09-2.61-11.37c-1.74-3.27-3.99-5.99-6.76-8.14
			c-2.76-2.15-5.99-3.79-9.68-4.92c-3.69-1.12-7.48-1.69-11.37-1.69h-53.14v207.95H722.24z M717.33,584.03
			c0,2.66-0.92,4.92-2.76,6.76c-1.84,1.84-4.1,2.76-6.76,2.76h-11.37v-63.28h11.37c2.66,0,4.92,0.87,6.76,2.61
			c1.84,1.74,2.76,3.95,2.76,6.6V584.03z M696.74,498.63v-50.68h9.52c2.87,0,5.42,0.77,7.68,2.3c2.25,1.54,3.38,3.84,3.38,6.91
			v32.25c0,2.05-0.72,4.1-2.15,6.14c-1.44,2.05-3.28,3.07-5.53,3.07H696.74z"/>
		<path d="M885.96,412.32l26.42,25.8v187.37c0,8.8-2.97,16.17-8.91,22.12c-5.94,5.94-13.31,8.91-22.12,8.91h-32.56
			c-8.81,0-16.18-2.97-22.12-8.91l-21.81-21.2c-4.71-2.87-8.5-6.71-11.37-11.52c-2.87-4.81-4.3-10.18-4.3-16.13v-188.3h43.31v1.84
			l10.14,9.83v-11.67h43.31V412.32z M879.82,416.62h-31.02v167.41c0,3.49-1.18,5.94-3.53,7.37c-2.36,1.44-4.97,2.15-7.83,2.15
			c-7.37,0.82-11.06-2.76-11.06-10.75s0-14.02,0-18.12V416.62h-31.02v182.15c0,7.17,2.56,13.26,7.68,18.28
			c5.12,5.02,11.26,7.53,18.43,7.53h32.56c7.17,0,13.26-2.5,18.28-7.53c5.02-5.02,7.53-11.11,7.53-18.28V416.62z"/>
		<path d="M923.74,630.72h-1.84V410.47h63.28c5.94,0,11.31,1.44,16.13,4.3c4.81,2.87,8.65,6.66,11.52,11.37l21.5,20.89
			c2.87,2.87,5.17,6.2,6.91,9.98c1.74,3.79,2.61,7.94,2.61,12.44v82.94c0,5.94-1.33,11.32-3.99,16.13
			c-2.66,4.81-6.56,8.55-11.67,11.21c2.66,12.29,5.53,25.24,8.6,38.86c3.07,13.62,5.94,26.26,8.6,37.94h-43.31l-10.44-10.14v10.14
			h-41.47L923.74,630.72z M1011.29,442.73c0-7.17-2.56-13.31-7.68-18.43c-5.12-5.12-11.26-7.68-18.43-7.68h-57.13v207.95h31.02
			v-72.8h3.99l15.97,72.8h32.25l-16.59-74.64c4.92-1.84,8.91-5.02,11.98-9.52c3.07-4.5,4.61-9.42,4.61-14.74V442.73z M979.95,511.23
			c0,2.46-0.92,4.61-2.76,6.45c-1.84,1.84-3.99,2.76-6.45,2.76h-11.67v-72.8h11.67c2.66,0,4.86,0.97,6.6,2.92
			c1.74,1.95,2.61,4.15,2.61,6.6V511.23z"/>
		<path d="M1066.58,626.42c-4.71-2.87-8.5-6.71-11.37-11.52c-2.87-4.81-4.3-10.18-4.3-16.13V442.73c0-4.5,0.82-8.7,2.46-12.59
			c1.64-3.89,3.94-7.27,6.91-10.14c2.97-2.87,6.4-5.17,10.29-6.91c3.89-1.74,8.09-2.61,12.59-2.61h31.02
			c5.94,0,11.31,1.44,16.13,4.3c4.81,2.87,8.65,6.66,11.52,11.37l0.31,0.31l21.2,20.58c2.87,2.87,5.17,6.2,6.91,9.98
			c1.74,3.79,2.61,7.94,2.61,12.44v41.47h-23.04l23.04,22.42v123.18h-62.36c-8.81,0-16.18-2.97-22.12-8.91L1066.58,626.42z
			 M1140.3,511.84h-43.62v31.33h12.59v50.38h-11.53c-2.71,0-4.94-0.92-6.71-2.76c-1.77-1.84-2.65-4.09-2.65-6.76V457.16
			c0-2.46,0.93-4.61,2.8-6.45s4.06-2.76,6.55-2.76c4.16,0,7.07,1.08,8.73,3.23s2.7,4.81,3.11,7.99c0.41,3.18,0.47,6.56,0.16,10.14
			c-0.31,3.58-0.46,6.81-0.46,9.68h31.03v-36.25c0-7.17-2.56-13.31-7.68-18.43c-5.12-5.12-11.26-7.68-18.43-7.68h-31.02
			c-7.17,0-13.31,2.56-18.43,7.68c-5.12,5.12-7.68,11.26-7.68,18.43v156.04c0,7.17,2.56,13.26,7.68,18.28
			c5.12,5.02,11.26,7.53,18.43,7.53h57.13V511.84z"/>
		<path d="M1276.99,412.32l26.42,25.8v187.37c0,8.8-2.97,16.17-8.91,22.12c-5.94,5.94-13.31,8.91-22.12,8.91h-32.56
			c-8.81,0-16.18-2.97-22.12-8.91l-21.81-21.2c-4.71-2.87-8.5-6.71-11.37-11.52c-2.87-4.81-4.3-10.18-4.3-16.13v-188.3h43.31v1.84
			l10.14,9.83v-11.67h43.31V412.32z M1270.84,416.62h-31.02v167.41c0,3.49-1.18,5.94-3.53,7.37c-2.36,1.44-4.97,2.15-7.83,2.15
			c-7.37,0.82-11.06-2.76-11.06-10.75s0-14.02,0-18.12V416.62h-31.02v182.15c0,7.17,2.56,13.26,7.68,18.28
			c5.12,5.02,11.26,7.53,18.43,7.53h32.56c7.17,0,13.26-2.5,18.28-7.53c5.02-5.02,7.53-11.11,7.53-18.28V416.62z"/>
		<path d="M1381.12,493.72h4.3v1.84l26.42,25.8v41.78h-30.72v24.27h10.75v1.84l26.42,25.8v41.47h-78.64l-26.42-25.8h-1.84V410.47
			h80.48v1.84l26.42,25.8v41.78h-37.17V493.72z M1348.56,593.55v-62.36h30.72v-31.33h-30.72v-51.91h37.17v-31.33h-68.19v207.95
			h68.19v-31.02H1348.56z"/>
		<path d="M1427.5,630.72h-1.84V410.47h63.28c5.94,0,11.31,1.44,16.13,4.3c4.81,2.87,8.65,6.66,11.52,11.37l21.5,20.89
			c2.87,2.87,5.17,6.2,6.91,9.98c1.74,3.79,2.61,7.94,2.61,12.44v82.94c0,5.94-1.33,11.32-3.99,16.13
			c-2.66,4.81-6.56,8.55-11.67,11.21c2.66,12.29,5.53,25.24,8.6,38.86c3.07,13.62,5.94,26.26,8.6,37.94h-43.31l-10.44-10.14v10.14
			h-41.47L1427.5,630.72z M1515.04,442.73c0-7.17-2.56-13.31-7.68-18.43c-5.12-5.12-11.26-7.68-18.43-7.68h-57.13v207.95h31.02
			v-72.8h3.99l15.97,72.8h32.25l-16.59-74.64c4.92-1.84,8.91-5.02,11.98-9.52c3.07-4.5,4.61-9.42,4.61-14.74V442.73z
			 M1483.71,511.23c0,2.46-0.92,4.61-2.76,6.45c-1.84,1.84-3.99,2.76-6.45,2.76h-11.67v-72.8h11.67c2.66,0,4.86,0.97,6.6,2.92
			c1.74,1.95,2.61,4.15,2.61,6.6V511.23z"/>
	</g>
	<g>
		<path class="st0" d="M361.78,522.04c1.09-0.02,1.29,0.93,1.68,1.61c1.83,3.19,4.61,4.66,8.25,4.64c0.84,0,1.66,0.01,2.5,0.01
			h230.91c0.91,0,1.83,0.01,2.74-0.01c5.4-0.18,8.89-3.59,8.9-9.02c0.01-11.3-1.74-22.37-4.95-33.2
			c-4.57-15.44-12.05-29.42-22.45-41.69c-19.04-22.42-43.06-36.28-72.21-40.97c-2.47-0.4-4.92-0.78-7.41-1.07
			c-0.83-0.09-1.94,0.15-2.11-1.18c1.68,1.04,3.64,0.62,5.45,0.88c40.18,5.69,70.23,26.29,90.11,61.54
			c9.43,16.72,13.87,34.94,14.28,54.13c0.18,7.86-3.24,11.31-11.05,11.31c-77.64,0-155.28-0.03-232.92,0.08
			C367.89,529.1,363.91,527.37,361.78,522.04z"/>
		<path class="st0" d="M616.64,556.1c-0.26-4.3-3.54-7.51-7.94-7.77c-0.91-0.04-1.83-0.03-2.74-0.03H373.29
			c-0.75,0-1.5,0.02-2.24,0.01c-3.08-0.02-5.45,1.24-7.14,3.82c-0.52,0.79-0.88,1.87-2.13,1.87c0.78-0.37,0.71-1.24,1.08-1.85
			c1.64-2.76,3.93-4.47,7.19-4.73c1.07-0.08,2.15-0.1,3.24-0.1c77.58-0.01,155.16-0.01,232.74-0.01c1.66,0,3.34-0.08,4.95,0.39
			c4.21,1.21,7,5.43,6.48,9.75c-0.52,4.4-4.08,7.78-8.49,8.03c-0.99,0.07-2,0.04-3,0.04c-77.49,0-154.99-0.03-232.48,0.08
			c-5.65,0-9.64-1.71-11.71-7.11c1.17,0.03,1.41,1.07,1.83,1.82c1.58,2.79,4.05,4.06,7.15,4.32c1.08,0.09,2.16,0.06,3.25,0.06
			h231.16c1.42,0,2.83,0.06,4.24-0.15C613.83,563.89,616.89,560.32,616.64,556.1z"/>
		<path class="st0" d="M617.05,617.34c-2.7,21.43-21.12,38.45-42.7,39.47c-0.99,0.06-2,0.09-2.99,0.09
			c-54.44,0-108.87,0.03-163.31-0.01c-20.44-0.02-37.28-12.14-43.93-31.46c-0.95-2.78-1.56-5.66-2.33-8.49
			c1.57,0.33,1.34,1.77,1.55,2.79c1.65,7.72,4.9,14.64,10.06,20.65c7.24,8.42,16.4,13.38,27.32,15.23c2.54,0.44,5.11,0.57,7.7,0.57
			c54.26-0.02,108.54-0.01,162.8-0.01c23.98,0,43.54-17.81,45.45-41.71c0.58-7.2,0.28-14.47,0.06-21.71
			c-0.16-4.79-3.66-7.99-8.49-8.02c-12-0.07-23.98-0.01-35.96-0.02c-2.63,0-4.82,1.04-6.87,2.58c-8.78,6.61-17.57,13.18-26.37,19.77
			c-3.65,2.74-3.83,2.73-7.54-0.04c-8.67-6.48-17.34-12.94-25.95-19.5c-2.66-2.02-5.47-2.85-8.79-2.83
			c-41.29,0.06-82.56,0.06-123.85-0.01c-4.39,0-7.86,1.12-9.81,5.33c-0.23,0.51-0.55,1.07-1.29,0.97c1.96-5.31,5.82-7.17,11.4-7.15
			c41.12,0.12,82.24,0.09,123.36,0.02c3.68-0.01,6.76,1,9.67,3.24c9.05,6.91,18.23,13.65,27.28,20.56c1.48,1.14,2.35,0.99,3.74-0.07
			c9.27-7.04,18.62-13.98,27.91-21c2.42-1.83,5.02-2.73,8.08-2.72c11.33,0.07,22.64,0.01,33.97,0.03
			c6.78,0.01,10.4,3.55,10.32,10.28C617.4,601.88,618.02,609.63,617.05,617.34z"/>
		<path d="M453.11,469.75c0,1.66,0.1,3.34-0.02,4.99c-0.38,4.83-4.02,8.35-8.76,8.57c-4.66,0.22-8.68-3.06-9.31-7.91
			c-0.49-3.78-0.48-7.64-0.01-11.44c0.62-4.99,4.56-8.12,9.51-7.91c4.65,0.2,8.27,3.84,8.58,8.71c0.11,1.66,0.02,3.33,0.02,4.99
			C453.11,469.75,453.11,469.75,453.11,469.75z"/>
		<path d="M498.65,475.16c-0.35,4.64-4.4,8.22-9.08,8.17c-4.61-0.07-8.63-3.57-8.88-8.1c-0.2-3.73-0.21-7.48,0.01-11.2
			c0.27-4.53,4.3-7.98,8.93-8c4.64-0.01,8.63,3.43,9.02,7.93c0.16,1.9,0.02,3.82,0.02,5.72h0.01
			C498.67,471.51,498.78,473.35,498.65,475.16z"/>
		<path d="M544.26,475.54c-0.64,4.71-4.61,7.93-9.17,7.78c-4.73-0.16-8.45-3.66-8.85-8.47c-0.15-1.74-0.02-3.49-0.02-5.23
			c0-1.75-0.13-3.5,0.03-5.23c0.44-4.74,4.1-8.19,8.68-8.35c4.83-0.15,8.71,2.95,9.34,7.82
			C544.77,467.73,544.79,471.67,544.26,475.54z"/>
		<path d="M603.2,463.58c-9.97-17.68-22.5-31.67-37.59-41.95c0,0-23.63-16.08-52.53-19.59c-4.38-0.53-9.57-0.86-9.94-0.88
			c-15.7-0.97-28.68,0.21-36.37,0.94c-1.95,0.19-3.55,0.34-4,0.41c-49.57,7.51-89.52,45.85-98.83,94.97
			c-0.71,3.75-1.09,7.57-1.64,11.34c-0.07,0.46,0.16,1.04-0.52,1.23v2.5c0.27,0.25,0.27,0.55,0.27,0.85
			c-0.01,0.04-0.01,0.09-0.01,0.13c0,0.07,0.01,0.13,0.01,0.2c-0.1,0.6,0.21,1.26-0.27,1.82v6.49c2.13,5.33,6.11,7.06,11.74,7.06
			c77.64-0.11,155.28-0.08,232.92-0.08c7.81,0,11.23-3.46,11.05-11.31C617.07,498.51,612.63,480.29,603.2,463.58z M380.8,507.86
			c3.21-24.44,13.72-45.17,31.81-61.85c15.18-13.99,33.07-22.79,53.65-25.35c16.98-2.12,34.08-2.28,50.98,0.58
			c15.9,2.69,30.24,9.37,42.98,19.28c14.14,11,24.66,24.82,31.49,41.4c3.57,8.65,5.75,17.65,6.9,26.94
			c0.29,2.38-1.08,1.87-2.33,1.87H489.41c-35.38,0-70.77-0.03-106.14,0.07C380.72,510.81,380.54,509.96,380.8,507.86z"/>
		<path d="M617.5,594.15c0.08-6.73-3.54-10.27-10.32-10.28c-11.33-0.02-22.64,0.03-33.97-0.03c-3.06-0.01-5.66,0.89-8.08,2.72
			c-9.28,7.02-18.63,13.96-27.91,21c-1.38,1.06-2.25,1.21-3.74,0.07c-9.05-6.92-18.23-13.66-27.28-20.56
			c-2.91-2.23-5.99-3.25-9.67-3.24c-41.12,0.07-82.24,0.1-123.36-0.02c-5.58-0.02-9.44,1.84-11.4,7.15v25.98
			c0.77,2.83,1.38,5.71,2.33,8.49c6.65,19.32,23.49,31.43,43.93,31.46c54.44,0.04,108.87,0.01,163.31,0.01c0.99,0,2-0.03,2.99-0.09
			c21.58-1.02,40-18.03,42.7-39.47C618.02,609.63,617.4,601.88,617.5,594.15z M598.16,618.84c-3.24,11.11-13.11,19.3-24.65,19.59
			c-12.47,0.32-24.97,0.16-37.46,0.17c-15.48,0.01-30.96,0-46.44,0c-26.98,0-53.95,0.02-80.92-0.01c-13-0.01-23.04-6.93-27.13-18.42
			c-1.97-5.58-1.36-11.35-1.48-17.06c-0.01-0.7,0.29-1.09,1.04-1.06c0.58,0.02,1.17,0,1.75,0c36.79,0,73.59,0.01,110.38-0.03
			c1.66,0,2.98,0.39,4.33,1.42c10.28,7.78,20.61,15.49,30.92,23.22c4.94,3.7,8.71,3.72,13.6,0.06c10.44-7.83,20.9-15.67,31.32-23.52
			c0.96-0.73,1.89-1.18,3.16-1.17c6.91,0.07,13.81,0.08,20.72,0c1.53-0.02,2.03,0.4,1.96,1.95
			C599.07,608.94,599.58,613.93,598.16,618.84z"/>
		<path d="M617.46,557.45c-0.52,4.4-4.08,7.78-8.49,8.03c-0.99,0.07-2,0.04-3,0.04c-77.49,0-154.99-0.03-232.48,0.08
			c-5.65,0-9.64-1.71-11.71-7.11V554c0.78-0.37,0.71-1.24,1.08-1.85c1.64-2.76,3.93-4.47,7.19-4.73c1.07-0.08,2.15-0.1,3.24-0.1
			c77.58-0.01,155.16-0.01,232.74-0.01c1.66,0,3.34-0.08,4.95,0.39C615.18,548.9,617.97,553.13,617.46,557.45z"/>
		<path class="st1" d="M362.21,513.51c0.03,0.71,0.32,1.48-0.43,2.03c0-0.67,0-1.33,0-2C361.91,513.33,362.05,513.31,362.21,513.51z
			"/>
		<path class="st2" d="M362.21,513.51c-0.14,0.02-0.29,0.03-0.43,0.03c0-0.33,0-0.67,0-1C362.35,512.67,362.26,513.1,362.21,513.51z
			"/>
		<path class="st0" d="M453.11,469.75c0,1.66,0.1,3.34-0.02,4.99c-0.38,4.83-4.02,8.35-8.76,8.57c-4.66,0.22-8.68-3.06-9.31-7.91
			c-0.49-3.78-0.48-7.64-0.01-11.44c0.62-4.99,4.56-8.12,9.51-7.91c4.65,0.2,8.27,3.84,8.58,8.71c0.11,1.66,0.02,3.33,0.02,4.99
			C453.11,469.75,453.11,469.75,453.11,469.75z"/>
		<path class="st0" d="M498.65,475.16c-0.35,4.64-4.4,8.22-9.08,8.17c-4.61-0.07-8.63-3.57-8.88-8.1c-0.2-3.73-0.21-7.48,0.01-11.2
			c0.27-4.53,4.3-7.98,8.93-8c4.64-0.01,8.63,3.43,9.02,7.93c0.16,1.9,0.02,3.82,0.02,5.72h0.01
			C498.67,471.51,498.78,473.35,498.65,475.16z"/>
		<path class="st0" d="M544.26,475.54c-0.64,4.71-4.61,7.93-9.17,7.78c-4.73-0.16-8.45-3.66-8.85-8.47
			c-0.15-1.74-0.02-3.49-0.02-5.23c0-1.75-0.13-3.5,0.03-5.23c0.44-4.74,4.1-8.19,8.68-8.35c4.83-0.15,8.71,2.95,9.34,7.82
			C544.77,467.73,544.79,471.67,544.26,475.54z"/>
		<path d="M453.11,469.75c0,1.66,0.1,3.34-0.02,4.99c-0.38,4.83-4.02,8.35-8.76,8.57c-4.66,0.22-8.68-3.06-9.31-7.91
			c-0.49-3.78-0.48-7.64-0.01-11.44c0.62-4.99,4.56-8.12,9.51-7.91c4.65,0.2,8.27,3.84,8.58,8.71c0.11,1.66,0.02,3.33,0.02,4.99
			C453.11,469.75,453.11,469.75,453.11,469.75z"/>
		<path d="M544.26,475.54c-0.64,4.71-4.61,7.93-9.17,7.78c-4.73-0.16-8.45-3.66-8.85-8.47c-0.15-1.74-0.02-3.49-0.02-5.23
			c0-1.75-0.13-3.5,0.03-5.23c0.44-4.74,4.1-8.19,8.68-8.35c4.83-0.15,8.71,2.95,9.34,7.82
			C544.77,467.73,544.79,471.67,544.26,475.54z"/>
		<path d="M498.65,475.16c-0.35,4.64-4.4,8.22-9.08,8.17c-4.61-0.07-8.63-3.57-8.88-8.1c-0.2-3.73-0.21-7.48,0.01-11.2
			c0.27-4.53,4.3-7.98,8.93-8c4.64-0.01,8.63,3.43,9.02,7.93c0.16,1.9,0.02,3.82,0.02,5.72h0.01
			C498.67,471.51,498.78,473.35,498.65,475.16z"/>
	</g>
</g>
</svg>
